<?xml version="1.0" encoding="utf-8"?>
<!-- Generator: Adobe Illustrator 25.0.0, SVG Export Plug-In . SVG Version: 6.00 Build 0)  -->
<svg version="1.1" id="Layer_1" xmlns="http://www.w3.org/2000/svg" xmlns:xlink="http://www.w3.org/1999/xlink" x="0px" y="0px"
	 viewBox="0 0 48 48" style="enable-background:new 0 0 48 48;" xml:space="preserve">
<style type="text/css">
	.st0{fill:#D1D8DC;}
</style>
<path class="st0" d="M34.3,30.2h-2.2l-0.8-0.8c2.7-3.1,4.3-7.2,4.3-11.6C35.7,8,27.7,0,17.8,0S0,8,0,17.8s8,17.8,17.8,17.8
	c4.4,0,8.5-1.6,11.6-4.3l0.8,0.8v2.2L43.9,48l4.1-4.1L34.3,30.2z M17.8,30.2c-6.8,0-12.3-5.5-12.3-12.3S11,5.5,17.8,5.5
	S30.2,11,30.2,17.8S24.7,30.2,17.8,30.2z"/>
</svg>
